<svg xmlns="http://www.w3.org/2000/svg" viewBox="0 0 40 40" width="512" height="512">
  <defs>
    <clipPath id="circle-clip">
      <circle cx="20" cy="20" r="19"/>
    </clipPath>
  </defs>
  <!-- Circular background -->
  <circle cx="20" cy="20" r="19" fill="#0a1628"/>
  <!-- Subtle border ring -->
  <circle cx="20" cy="20" r="19" fill="none" stroke="#1a2d4a" stroke-width="0.5"/>
  <!-- Icon graph structure clipped to circle -->
  <g clip-path="url(#circle-clip)">
    <!-- Edges -->
    <line x1="20" y1="20" x2="20" y2="8" stroke="white" stroke-width="1" opacity="0.6"/>
    <line x1="20" y1="8" x2="20" y2="4" stroke="white" stroke-width="1" opacity="0.6"/>
    <line x1="20" y1="20" x2="30.39" y2="26" stroke="white" stroke-width="1" opacity="0.6"/>
    <line x1="30.39" y1="26" x2="33.86" y2="29" stroke="white" stroke-width="1" opacity="0.6"/>
    <line x1="20" y1="20" x2="9.61" y2="26" stroke="white" stroke-width="1" opacity="0.6"/>
    <line x1="9.61" y1="26" x2="6.14" y2="29" stroke="white" stroke-width="1" opacity="0.6"/>
    <line x1="20" y1="8" x2="30.39" y2="26" stroke="white" stroke-width="1" opacity="0.6"/>
    <line x1="30.39" y1="26" x2="9.61" y2="26" stroke="white" stroke-width="1" opacity="0.6"/>
    <line x1="9.61" y1="26" x2="20" y2="8" stroke="white" stroke-width="1" opacity="0.6"/>
    <!-- Nodes -->
    <circle cx="20" cy="8" r="1.5" fill="white"/>
    <circle cx="20" cy="4" r="1.2" fill="white"/>
    <circle cx="30.39" cy="26" r="1.5" fill="white"/>
    <circle cx="33.86" cy="29" r="1.2" fill="white"/>
    <circle cx="9.61" cy="26" r="1.5" fill="white"/>
    <circle cx="6.14" cy="29" r="1.2" fill="white"/>
    <!-- Center node -->
    <circle cx="20" cy="20" r="2" fill="white"/>
  </g>
</svg>